grf
version=1
nRows=56
nColumns=19
inDegrees=yes
endheader
time	ground_force_1_vx	ground_force_1_vy	ground_force_1_vz	ground_force_1_px	ground_force_1_py	ground_force_1_pz	ground_moment_1_mx	ground_moment_1_my	ground_moment_1_mz	ground_force_2_vx	ground_force_2_vy	ground_force_2_vz	ground_force_2_px	ground_force_2_py	ground_force_2_pz	ground_moment_2_mx	ground_moment_2_my	ground_moment_2_mz
0.417000	1.188138	500.360809	-12.298284	0.882687	0.000000	0.255956	0.000000	-0.068451	-0.000000	0.000000	0.000000	0.000000	0.000000	0.000000	0.000000	0.000000	0.000000	0.000000
0.418000	0.245742	503.512085	-11.434958	0.882576	0.000000	0.255172	0.000000	-0.056495	-0.000000	0.000000	0.000000	0.000000	0.000000	0.000000	0.000000	0.000000	0.000000	0.000000
0.419000	0.486354	496.960754	-11.876658	0.882068	0.000000	0.255437	0.000000	-0.069052	-0.000000	0.000000	0.000000	0.000000	0.000000	0.000000	0.000000	0.000000	0.000000	0.000000
0.420000	0.005130	505.087708	-12.097509	0.881261	0.000000	0.254879	-0.000000	0.017116	0.000000	0.000000	0.000000	0.000000	0.000000	0.000000	0.000000	0.000000	0.000000	0.000000
0.421000	-0.355787	499.946167	-11.515266	0.880836	0.000000	0.255260	0.000000	-0.093430	-0.000000	0.000000	0.000000	0.000000	0.000000	0.000000	0.000000	0.000000	0.000000	0.000000
0.422000	-0.636501	500.112000	-11.736117	0.879821	0.000000	0.255499	0.000000	-0.044731	-0.000000	0.000000	0.000000	0.000000	0.000000	0.000000	0.000000	0.000000	0.000000	0.000000
0.423000	-0.877112	499.946167	-11.535343	0.880189	0.000000	0.255895	0.000000	-0.010495	-0.000000	0.000000	0.000000	0.000000	0.000000	0.000000	0.000000	0.000000	0.000000	0.000000
0.424000	-1.799457	505.253540	-10.953100	0.879787	0.000000	0.255165	0.000000	-0.051637	-0.000000	0.000000	0.000000	0.000000	0.000000	0.000000	0.000000	0.000000	0.000000	0.000000
0.425000	-1.779406	497.790039	-11.896736	0.877286	0.000000	0.255623	-0.000000	0.027310	0.000000	0.000000	0.000000	0.000000	0.000000	0.000000	0.000000	0.000000	0.000000	0.000000
0.426000	-1.779406	500.775452	-11.194029	0.879674	0.000000	0.255516	0.000000	-0.178513	-0.000000	0.000000	0.000000	0.000000	0.000000	0.000000	0.000000	0.000000	0.000000	0.000000
0.427000	-2.260630	502.599854	-11.475111	0.878713	0.000000	0.256199	0.000000	-0.016328	-0.000000	0.000000	0.000000	0.000000	0.000000	0.000000	0.000000	0.000000	0.000000	0.000000
0.428000	-2.320782	500.029083	-11.414880	0.878100	0.000000	0.255160	0.000000	-0.231216	-0.000000	0.000000	0.000000	0.000000	0.000000	0.000000	0.000000	0.000000	0.000000	0.000000
0.429000	-2.962414	500.112000	-11.133796	0.876617	0.000000	0.256033	-0.000000	0.049918	0.000000	0.000000	0.000000	0.000000	0.000000	0.000000	0.000000	0.000000	0.000000	0.000000
0.430000	-3.042617	503.097412	-11.013332	0.877342	0.000000	0.255870	0.000000	-0.114282	-0.000000	0.000000	0.000000	0.000000	0.000000	0.000000	0.000000	0.000000	0.000000	0.000000
0.431000	-3.804554	502.516937	-11.575499	0.875891	0.000000	0.256536	0.000000	-0.038026	-0.000000	0.000000	0.000000	0.000000	0.000000	0.000000	0.000000	0.000000	0.000000	0.000000
0.432000	-3.604045	502.351105	-11.133797	0.875638	0.000000	0.256239	0.000000	-0.032636	-0.000000	0.000000	0.000000	0.000000	0.000000	0.000000	0.000000	0.000000	0.000000	0.000000
0.433000	-4.345931	502.516907	-11.173951	0.874521	0.000000	0.255623	0.000000	-0.135089	-0.000000	0.000000	0.000000	0.000000	0.000000	0.000000	0.000000	0.000000	0.000000	0.000000
0.434000	-4.967511	507.990173	-11.635730	0.875391	0.000000	0.255373	0.000000	-0.104912	-0.000000	0.000000	0.000000	0.000000	0.000000	0.000000	0.000000	0.000000	0.000000	0.000000
0.435000	-4.325880	507.409698	-12.017200	0.873624	0.000000	0.254440	0.000000	-0.101941	-0.000000	0.000000	0.000000	0.000000	0.000000	0.000000	0.000000	0.000000	0.000000	0.000000
0.436000	-4.967511	504.424255	-10.953100	0.873145	0.000000	0.255453	0.000000	-0.197933	-0.000000	0.000000	0.000000	0.000000	0.000000	0.000000	0.000000	0.000000	0.000000	0.000000
0.437000	-5.248224	499.033966	-11.776272	0.873194	0.000000	0.257191	0.000000	-0.245731	-0.000000	0.000000	0.000000	0.000000	0.000000	0.000000	0.000000	0.000000	0.000000	0.000000
0.438000	-7.273373	506.497498	-10.892868	0.875170	0.000000	0.255762	0.000000	-0.157250	-0.000000	0.000000	0.000000	0.000000	0.000000	0.000000	0.000000	0.000000	0.000000	0.000000
0.439000	-6.210671	500.858368	-11.013332	0.873003	0.000000	0.257531	0.000000	-0.060832	-0.000000	0.000000	0.000000	0.000000	0.000000	0.000000	0.000000	0.000000	0.000000	0.000000
0.440000	-5.869804	502.185211	-10.451166	0.871653	0.000000	0.257114	0.000000	-0.295103	-0.000000	0.000000	0.000000	0.000000	0.000000	0.000000	0.000000	0.000000	0.000000	0.000000
0.441000	-6.892404	502.682800	-12.258129	0.870332	0.000000	0.256493	0.000000	-0.135749	-0.000000	0.000000	0.000000	0.000000	0.000000	0.000000	0.000000	0.000000	0.000000	0.000000
0.442000	-7.112965	506.746277	-11.876658	0.875491	0.000000	0.256959	0.000000	-0.235992	-0.000000	0.000000	0.000000	0.000000	0.000000	0.000000	0.000000	0.000000	0.000000	0.000000
0.443000	-7.092914	504.092529	-11.615652	0.871153	0.000000	0.256296	0.000000	-0.300566	-0.000000	0.000000	0.000000	0.000000	0.000000	0.000000	0.000000	0.000000	0.000000	0.000000
0.444000	-7.634290	508.902435	-11.615653	0.870919	0.000000	0.255764	0.000000	-0.413588	-0.000000	0.000000	0.000000	0.000000	0.000000	0.000000	0.000000	0.000000	0.000000	0.000000
0.445000	-8.416278	513.463440	-11.334570	0.870750	0.000000	0.256089	0.000000	-0.197673	-0.000000	0.000000	0.000000	0.000000	0.000000	0.000000	0.000000	0.000000	0.000000	0.000000
0.446000	-7.874901	507.160889	-11.836504	0.869979	0.000000	0.257132	0.000000	-0.273186	-0.000000	0.000000	0.000000	0.000000	0.000000	0.000000	0.000000	0.000000	0.000000	0.000000
0.447000	-8.817297	512.219543	-11.153873	0.869509	0.000000	0.256145	0.000000	-0.237677	-0.000000	0.000000	0.000000	0.000000	0.000000	0.000000	0.000000	0.000000	0.000000	0.000000
0.448000	-9.398775	511.556091	-11.575499	0.869027	0.000000	0.256685	0.000000	-0.192754	-0.000000	0.000000	0.000000	0.000000	0.000000	0.000000	0.000000	0.000000	0.000000	0.000000
0.449000	-9.539132	512.053650	-11.113720	0.868008	0.000000	0.256283	0.000000	-0.265521	-0.000000	0.000000	0.000000	0.000000	0.000000	0.000000	0.000000	0.000000	0.000000	0.000000
0.450000	-10.060457	514.126892	-10.993255	0.867541	0.000000	0.256009	0.000000	-0.317901	-0.000000	0.000000	0.000000	0.000000	0.000000	0.000000	0.000000	0.000000	0.000000	0.000000
0.451000	-10.922649	518.604980	-10.631863	0.868894	0.000000	0.255980	0.000000	-0.263203	-0.000000	0.000000	0.000000	0.000000	0.000000	0.000000	0.000000	0.000000	0.000000	0.000000
0.452000	-10.762241	519.517212	-10.651939	0.867910	0.000000	0.256244	0.000000	-0.294341	-0.000000	0.000000	0.000000	0.000000	0.000000	0.000000	0.000000	0.000000	0.000000	0.000000
0.453000	-11.103107	516.697632	-10.832637	0.866933	0.000000	0.256188	0.000000	-0.326898	-0.000000	0.000000	0.000000	0.000000	0.000000	0.000000	0.000000	0.000000	0.000000	0.000000
0.454000	-11.183312	519.931885	-10.752327	0.866015	0.000000	0.256133	0.000000	-0.362385	-0.000000	0.000000	0.000000	0.000000	0.000000	0.000000	0.000000	0.000000	0.000000	0.000000
0.455000	-11.804892	520.429382	-11.274338	0.865482	0.000000	0.256682	0.000000	-0.174447	-0.000000	0.000000	0.000000	0.000000	0.000000	0.000000	0.000000	0.000000	0.000000	0.000000
0.456000	-12.266064	521.092834	-11.334570	0.865739	0.000000	0.255879	0.000000	-0.420717	-0.000000	0.000000	0.000000	0.000000	0.000000	0.000000	0.000000	0.000000	0.000000	0.000000
0.457000	-12.626982	523.414795	-10.993255	0.866175	0.000000	0.256080	0.000000	-0.331803	-0.000000	0.000000	0.000000	0.000000	0.000000	0.000000	0.000000	0.000000	0.000000	0.000000
0.458000	-13.348817	529.136841	-10.631863	0.865317	0.000000	0.255788	0.000000	-0.360979	-0.000000	0.000000	0.000000	0.000000	0.000000	0.000000	0.000000	0.000000	0.000000	0.000000
0.459000	-12.947797	524.327026	-11.756195	0.865161	0.000000	0.256388	0.000000	-0.423087	-0.000000	0.000000	0.000000	0.000000	0.000000	0.000000	0.000000	0.000000	0.000000	0.000000
0.460000	-13.689684	527.395386	-11.515266	0.864638	0.000000	0.256214	0.000000	-0.325787	-0.000000	0.000000	0.000000	0.000000	0.000000	0.000000	0.000000	0.000000	0.000000	0.000000
0.461000	-14.291212	531.458862	-11.113719	0.865261	0.000000	0.256438	0.000000	-0.366179	-0.000000	0.000000	0.000000	0.000000	0.000000	0.000000	0.000000	0.000000	0.000000	0.000000
0.462000	-14.912792	532.536926	-10.752326	0.865120	0.000000	0.256038	0.000000	-0.305519	-0.000000	0.000000	0.000000	0.000000	0.000000	0.000000	0.000000	0.000000	0.000000	0.000000
0.463000	-15.293760	533.946716	-11.334570	0.863284	0.000000	0.255671	0.000000	-0.359484	-0.000000	0.000000	0.000000	0.000000	0.000000	0.000000	0.000000	0.000000	0.000000	0.000000
0.464000	-15.614576	535.356506	-11.033409	0.862764	0.000000	0.256089	0.000000	-0.289826	-0.000000	0.000000	0.000000	0.000000	0.000000	0.000000	0.000000	0.000000	0.000000	0.000000
0.465000	-15.975494	539.751709	-10.591707	0.863497	0.000000	0.256132	0.000000	-0.288360	-0.000000	0.000000	0.000000	0.000000	0.000000	0.000000	0.000000	0.000000	0.000000	0.000000
0.466000	-16.657227	541.907837	-10.511398	0.863828	0.000000	0.255695	0.000000	-0.409897	-0.000000	0.000000	0.000000	0.000000	0.000000	0.000000	0.000000	0.000000	0.000000	0.000000
0.467000	-16.075748	538.093140	-11.073564	0.862636	0.000000	0.256892	0.000000	-0.371046	-0.000000	0.000000	0.000000	0.000000	0.000000	0.000000	0.000000	0.000000	0.000000	0.000000
0.468000	-17.158501	539.585815	-10.772404	0.861354	0.000000	0.256318	0.000000	-0.381811	-0.000000	0.000000	0.000000	0.000000	0.000000	0.000000	0.000000	0.000000	0.000000	0.000000
0.469000	-17.840235	543.317566	-11.254261	0.861652	0.000000	0.256238	0.000000	-0.461236	-0.000000	0.000000	0.000000	0.000000	0.000000	0.000000	0.000000	0.000000	0.000000	0.000000
0.470000	-18.100897	543.815186	-10.792481	0.859956	0.000000	0.256409	0.000000	-0.247065	-0.000000	0.000000	0.000000	0.000000	0.000000	0.000000	0.000000	0.000000	0.000000	0.000000
0.471000	-19.263855	553.020203	-10.591708	0.860974	0.000000	0.255361	0.000000	-0.371398	-0.000000	0.000000	0.000000	0.000000	0.000000	0.000000	0.000000	0.000000	0.000000	0.000000
0.472000	-19.143547	551.278687	-11.736117	0.863117	0.000000	0.255890	0.000000	-0.402196	-0.000000	0.000000	0.000000	0.000000	0.000000	0.000000	0.000000	0.000000	0.000000	0.000000
